<svg width="25" height="25" viewBox="0 0 25 25" fill="none" xmlns="http://www.w3.org/2000/svg">
<path d="M16.7499 19V21.1249C16.7499 21.6885 16.526 22.229 16.1275 22.6275C15.729 23.0261 15.1885 23.2499 14.6249 23.2499H6.12499C5.56141 23.2499 5.02091 23.0261 4.62239 22.6275C4.22388 22.229 4 21.6885 4 21.1249V9.43748C4 8.87389 4.22388 8.33339 4.62239 7.93488C5.02091 7.53636 5.56141 7.31248 6.12499 7.31248H8.24997" stroke="#2286C9" stroke-width="3" stroke-linecap="round" stroke-linejoin="round"/>
<path d="M8.25012 4.12499V16.875C8.25012 17.4385 8.474 17.979 8.87252 18.3776C9.27103 18.7761 9.81153 19 10.3751 19H18.8751C19.4386 19 19.9791 18.7761 20.3776 18.3776C20.7762 17.979 21 17.4385 21 16.875V7.56961C21 7.28652 20.9434 7.00629 20.8336 6.74537C20.7237 6.48446 20.5629 6.24812 20.3604 6.05024L16.8383 2.60562C16.4413 2.21745 15.9081 2.00007 15.3529 2H10.3751C9.81153 2 9.27103 2.22388 8.87252 2.6224C8.474 3.02091 8.25012 3.56141 8.25012 4.12499V4.12499Z" stroke="#3498DB" stroke-width="3" stroke-linecap="round" stroke-linejoin="round"/>
</svg>
